<svg xmlns="http://www.w3.org/2000/svg" xmlns:xlink="http://www.w3.org/1999/xlink" width="100" height="100" viewBox="0 0 100 100"><circle stroke="none" fill="#0066CC" r="48%" cx="50%" cy="50%"></circle><g transform="translate(50 50) scale(0.69 0.69) rotate(0) translate(-50 -50)" style="fill:#FFF434"><svg fill="#FFF434" xmlns="http://www.w3.org/2000/svg" data-name="Layer 1" viewBox="0 0 5 5" x="0px" y="0px"><title>abstract</title><g><g><circle cx="2.59763" cy="2.05583" r="0.135"></circle><circle cx="2.75265" cy="2.32587" r="0.12152"></circle><circle cx="2.9077" cy="2.59589" r="0.10936"></circle><circle cx="3.06272" cy="2.86593" r="0.09722"></circle><circle cx="3.21776" cy="3.13596" r="0.08507"></circle><circle cx="3.37279" cy="3.40599" r="0.07292"></circle><circle cx="3.52782" cy="3.67602" r="0.06074"></circle><circle cx="3.68284" cy="3.94606" r="0.04861"></circle><circle cx="3.83789" cy="4.21607" r="0.03645"></circle></g><g><circle cx="2.77074" cy="1.82502" r="0.13501"></circle><circle cx="2.92577" cy="2.09507" r="0.12152"></circle><circle cx="3.08081" cy="2.36507" r="0.10936"></circle><circle cx="3.23582" cy="2.63514" r="0.0972"></circle><circle cx="3.39086" cy="2.90517" r="0.08507"></circle><circle cx="3.54591" cy="3.1752" r="0.0729"></circle><circle cx="3.70093" cy="3.44521" r="0.06074"></circle><circle cx="3.85598" cy="3.71523" r="0.0486"></circle><circle cx="4.01098" cy="3.98527" r="0.03645"></circle></g><g><circle cx="2.94385" cy="1.59421" r="0.135"></circle><circle cx="3.09888" cy="1.86426" r="0.12149"></circle><circle cx="3.25391" cy="2.13428" r="0.10937"></circle><circle cx="3.40894" cy="2.4043" r="0.0972"></circle><circle cx="3.56397" cy="2.67433" r="0.08506"></circle><circle cx="3.71902" cy="2.94439" r="0.07291"></circle><circle cx="3.87403" cy="3.21438" r="0.06076"></circle><circle cx="4.02907" cy="3.48442" r="0.04861"></circle><circle cx="4.1841" cy="3.75444" r="0.03645"></circle></g><g><circle cx="3.11696" cy="1.36341" r="0.135"></circle><circle cx="3.27198" cy="1.63345" r="0.12149"></circle><circle cx="3.42702" cy="1.90346" r="0.10936"></circle><circle cx="3.58204" cy="2.17348" r="0.09721"></circle><circle cx="3.73709" cy="2.44353" r="0.08508"></circle><circle cx="3.89212" cy="2.71359" r="0.07291"></circle><circle cx="4.04716" cy="2.98358" r="0.06075"></circle><circle cx="4.20218" cy="3.25361" r="0.04861"></circle><circle cx="4.35722" cy="3.52363" r="0.03646"></circle></g><g><circle cx="3.29007" cy="1.13259" r="0.13501"></circle><circle cx="3.44508" cy="1.40263" r="0.1215"></circle><circle cx="3.60013" cy="1.67264" r="0.10936"></circle><circle cx="3.75515" cy="1.94266" r="0.09721"></circle><circle cx="3.91019" cy="2.21273" r="0.08509"></circle><circle cx="4.06522" cy="2.48277" r="0.0729"></circle><circle cx="4.22026" cy="2.75278" r="0.06075"></circle><circle cx="4.37529" cy="3.02279" r="0.04859"></circle><circle cx="4.53032" cy="3.29282" r="0.03646"></circle></g><g><circle cx="3.46317" cy="0.90179" r="0.13501"></circle><circle cx="3.61821" cy="1.1718" r="0.12149"></circle><circle cx="3.77324" cy="1.44183" r="0.10936"></circle><circle cx="3.92827" cy="1.71191" r="0.0972"></circle><circle cx="4.08331" cy="1.98192" r="0.08506"></circle><circle cx="4.23832" cy="2.25194" r="0.0729"></circle><circle cx="4.39336" cy="2.52198" r="0.06074"></circle><circle cx="4.54839" cy="2.79198" r="0.04859"></circle><circle cx="4.70343" cy="3.06203" r="0.03646"></circle></g><g><circle cx="2.85691" cy="3.10734" r="0.13499" transform="translate(-1.27616 3.96478) rotate(-59.12461)"></circle><circle cx="2.54558" cy="3.10181" r="0.1215" transform="translate(-1.4229 3.6954) rotate(-59.13203)"></circle><circle cx="2.23426" cy="3.09626" r="0.10938" transform="translate(-1.56982 3.42452) rotate(-59.11764)"></circle><circle cx="1.92294" cy="3.09073" r="0.09719" transform="translate(-1.71658 3.15551) rotate(-59.1313)"></circle><circle cx="1.61162" cy="3.08522" r="0.08505" transform="translate(-1.86344 2.88552) rotate(-59.12995)"></circle><circle cx="1.30031" cy="3.07968" r="0.07292" transform="translate(-2.01027 2.61562) rotate(-59.12999)"></circle><circle cx="0.98898" cy="3.07414" r="0.06074" transform="translate(-2.15696 2.3451) rotate(-59.11898)"></circle><circle cx="0.67765" cy="3.06861" r="0.0486" transform="translate(-2.30414 2.07637) rotate(-59.14138)"></circle><circle cx="0.36633" cy="3.06309" r="0.03646" transform="translate(-2.45078 1.80587) rotate(-59.12999)"></circle></g><g><circle cx="2.96616" cy="3.37437" r="0.13499" transform="translate(-1.45216 4.18859) rotate(-59.12522)"></circle><circle cx="2.65484" cy="3.36883" r="0.12148" transform="translate(-1.59903 3.91815) rotate(-59.11786)"></circle><circle cx="2.34352" cy="3.36332" r="0.10935" transform="translate(-1.74582 3.64844) rotate(-59.11995)"></circle><circle cx="2.03219" cy="3.35776" r="0.09721" transform="translate(-1.89259 3.3793) rotate(-59.13128)"></circle><circle cx="1.72088" cy="3.35224" r="0.08508" transform="translate(-2.03939 3.10866) rotate(-59.11998)"></circle><circle cx="1.40956" cy="3.34672" r="0.07291" transform="translate(-2.18636 2.84003) rotate(-59.13975)"></circle><circle cx="1.09823" cy="3.34115" r="0.06078" transform="translate(-2.33304 2.56927) rotate(-59.12645)"></circle><circle cx="0.78691" cy="3.33564" r="0.04857" transform="translate(-2.47927 2.29745) rotate(-59.09268)"></circle><circle cx="0.47558" cy="3.33011" r="0.03648" transform="translate(-2.62654 2.02908) rotate(-59.11926)"></circle></g><g><circle cx="3.07539" cy="3.64139" r="0.135" transform="translate(-1.6282 4.41209) rotate(-59.12212)"></circle><circle cx="2.76408" cy="3.63588" r="0.1215" transform="translate(-1.77502 4.14221) rotate(-59.12203)"></circle><circle cx="2.45277" cy="3.63033" r="0.10938" transform="translate(-1.92182 3.87193) rotate(-59.11682)"></circle><circle cx="2.14143" cy="3.6248" r="0.09721" transform="translate(-2.0686 3.60176) rotate(-59.11303)"></circle><circle cx="1.83014" cy="3.61927" r="0.08506" transform="translate(-2.21536 3.33211) rotate(-59.11561)"></circle><circle cx="1.5188" cy="3.61373" r="0.0729" transform="translate(-2.36225 3.06304) rotate(-59.12769)"></circle><circle cx="1.20749" cy="3.60819" r="0.06077" transform="translate(-2.50906 2.79315) rotate(-59.12784)"></circle><circle cx="0.89615" cy="3.60267" r="0.04862" transform="translate(-2.65532 2.52131) rotate(-59.09679)"></circle><circle cx="0.58484" cy="3.59714" r="0.03643" transform="translate(-2.80244 2.25259) rotate(-59.11521)"></circle></g><g><circle cx="3.18467" cy="3.90844" r="0.13501" transform="translate(-1.80428 4.63536) rotate(-59.1162)"></circle><circle cx="2.87333" cy="3.9029" r="0.1215" transform="translate(-1.951 4.36596) rotate(-59.12201)"></circle><circle cx="2.562" cy="3.89737" r="0.10938" transform="translate(-2.09783 4.09571) rotate(-59.11762)"></circle><circle cx="2.2507" cy="3.89181" r="0.0972" transform="translate(-2.24458 3.82626) rotate(-59.12311)"></circle><circle cx="1.93938" cy="3.88629" r="0.08507" transform="translate(-2.39142 3.55664) rotate(-59.12654)"></circle><circle cx="1.62806" cy="3.88077" r="0.07291" transform="translate(-2.53814 3.28607) rotate(-59.11724)"></circle><circle cx="1.3167" cy="3.87525" r="0.06076" transform="translate(-2.68509 3.01681) rotate(-59.12648)"></circle><circle cx="1.00541" cy="3.86972" r="0.04862" transform="matrix(0.51291, -0.85844, 0.85844, 0.51291, -2.8322, 2.74798)"></circle><circle cx="0.69409" cy="3.86417" r="0.03645" transform="translate(-2.97963 2.47949) rotate(-59.16484)"></circle></g><g><circle cx="3.2939" cy="4.17544" r="0.13499" transform="translate(-1.98008 4.8604) rotate(-59.13088)"></circle><circle cx="2.98257" cy="4.16994" r="0.12149" transform="translate(-2.127 4.58998) rotate(-59.1251)"></circle><circle cx="2.67125" cy="4.16441" r="0.10935" transform="translate(-2.27381 4.31997) rotate(-59.12383)"></circle><circle cx="2.35994" cy="4.15886" r="0.0972" transform="translate(-2.42061 4.05027) rotate(-59.12609)"></circle><circle cx="2.04862" cy="4.15332" r="0.08505" transform="matrix(0.51317, -0.85829, 0.85829, 0.51317, -2.56741, 3.78025)"></circle><circle cx="1.7373" cy="4.14781" r="0.07291" transform="translate(-2.71414 3.5097) rotate(-59.11607)"></circle><circle cx="1.42597" cy="4.14226" r="0.06074" transform="translate(-2.86104 3.24045) rotate(-59.12455)"></circle><circle cx="1.11466" cy="4.13674" r="0.04859" transform="translate(-3.00781 2.9704) rotate(-59.12225)"></circle><circle cx="0.80334" cy="4.13119" r="0.03646" transform="translate(-3.15473 2.70088) rotate(-59.12766)"></circle></g><g><circle cx="3.40314" cy="4.44249" r="0.135" transform="translate(-2.15624 5.08304) rotate(-59.11894)"></circle><circle cx="3.09184" cy="4.43696" r="0.12152" transform="translate(-2.303 4.81349) rotate(-59.1223)"></circle><circle cx="2.78052" cy="4.43143" r="0.10937" transform="translate(-2.4498 4.54378) rotate(-59.12412)"></circle><circle cx="2.46919" cy="4.42587" r="0.09723" transform="translate(-2.59661 4.27457) rotate(-59.13213)"></circle><circle cx="2.15786" cy="4.42037" r="0.08504" transform="matrix(0.51334, -0.85819, 0.85819, 0.51334, -2.74336, 4.00309)"></circle><circle cx="1.84653" cy="4.41483" r="0.07293" transform="translate(-2.89023 3.73398) rotate(-59.12302)"></circle><circle cx="1.53523" cy="4.4093" r="0.06077" transform="translate(-3.03721 3.46505) rotate(-59.13481)"></circle><circle cx="1.22389" cy="4.40378" r="0.0486" transform="translate(-3.1836 3.19334) rotate(-59.1118)"></circle><circle cx="0.91257" cy="4.39825" r="0.03644" transform="translate(-3.33077 2.92467) rotate(-59.12771)"></circle></g><g><circle cx="1.82141" cy="2.79021" r="0.13501" transform="translate(-1.10372 1.19446) rotate(-28.25031)"></circle><circle cx="1.9859" cy="2.52584" r="0.12151" transform="translate(-0.95875 1.24026) rotate(-28.23922)"></circle><circle cx="2.15045" cy="2.2615" r="0.10939" transform="translate(-0.81403 1.28647) rotate(-28.23556)"></circle><circle cx="2.31499" cy="1.99715" r="0.09718" transform="translate(-0.6695 1.33336) rotate(-28.2453)"></circle><circle cx="2.4795" cy="1.7328" r="0.08505" transform="translate(-0.52476 1.37932) rotate(-28.23725)"></circle><circle cx="2.64404" cy="1.46841" r="0.07292" transform="translate(-0.3801 1.42639) rotate(-28.25025)"></circle><circle cx="2.80855" cy="1.2041" r="0.06074" transform="translate(-0.23542 1.4725) rotate(-28.24513)"></circle><circle cx="2.97308" cy="0.93975" r="0.04861" transform="translate(-0.09068 1.51916) rotate(-28.25016)"></circle><circle cx="3.13764" cy="0.67537" r="0.03644" transform="translate(0.05414 1.56585) rotate(-28.25568)"></circle></g><g><circle cx="1.53613" cy="2.74691" r="0.135" transform="translate(-1.11702 1.05398) rotate(-28.24387)"></circle><circle cx="1.70067" cy="2.48255" r="0.12152" transform="translate(-0.97237 1.10047) rotate(-28.24592)"></circle><circle cx="1.86519" cy="2.21821" r="0.10936" transform="translate(-0.82758 1.14658) rotate(-28.24014)"></circle><circle cx="2.02975" cy="1.95386" r="0.09721" transform="translate(-0.6828 1.19259) rotate(-28.23201)"></circle><circle cx="2.19427" cy="1.6895" r="0.08506" transform="translate(-0.53838 1.24019) rotate(-28.25752)"></circle><circle cx="2.35878" cy="1.42516" r="0.07294" transform="translate(-0.3936 1.28619) rotate(-28.24964)"></circle><circle cx="2.52332" cy="1.16079" r="0.06076" transform="translate(-0.24888 1.33248) rotate(-28.24762)"></circle><circle cx="2.68784" cy="0.89646" r="0.04863" transform="translate(-0.10448 1.37716) rotate(-28.2126)"></circle><circle cx="2.85237" cy="0.63212" r="0.03645" transform="translate(0.04064 1.42572) rotate(-28.25696)"></circle></g><g><circle cx="1.25088" cy="2.70363" r="0.135" transform="translate(-1.13039 0.9137) rotate(-28.24052)"></circle><circle cx="1.41543" cy="2.43926" r="0.12152" transform="translate(-0.98578 0.96019) rotate(-28.24294)"></circle><circle cx="1.57994" cy="2.17493" r="0.10936" transform="translate(-0.84113 1.00662) rotate(-28.24411)"></circle><circle cx="1.74449" cy="1.91058" r="0.09721" transform="translate(-0.69626 1.0525) rotate(-28.23201)"></circle><circle cx="1.909" cy="1.64621" r="0.08506" transform="translate(-0.55162 1.09882) rotate(-28.23086)"></circle><circle cx="2.07353" cy="1.38187" r="0.07291" transform="translate(-0.40712 1.14628) rotate(-28.25557)"></circle><circle cx="2.23806" cy="1.11751" r="0.06076" transform="translate(-0.26236 1.19255) rotate(-28.25281)"></circle><circle cx="2.40258" cy="0.85316" r="0.04862" transform="translate(-0.11777 1.23799) rotate(-28.2315)"></circle><circle cx="2.56714" cy="0.5888" r="0.03646" transform="translate(0.02684 1.28436) rotate(-28.23073)"></circle></g><g><circle cx="0.96566" cy="2.66035" r="0.135" transform="translate(-1.144 0.77374) rotate(-28.24462)"></circle><circle cx="1.13017" cy="2.39599" r="0.12151" transform="translate(-0.99926 0.82005) rotate(-28.2428)"></circle><circle cx="1.29469" cy="2.13163" r="0.10938" transform="translate(-0.85457 0.86643) rotate(-28.24273)"></circle><circle cx="1.45924" cy="1.8673" r="0.09721" transform="translate(-0.70972 0.91241) rotate(-28.23186)"></circle><circle cx="1.62376" cy="1.60294" r="0.08507" transform="translate(-0.56527 0.95937) rotate(-28.24711)"></circle><circle cx="1.78828" cy="1.33861" r="0.0729" transform="translate(-0.42058 1.00586) rotate(-28.24961)"></circle><circle cx="1.95282" cy="1.07424" r="0.06076" transform="translate(-0.27585 1.05181) rotate(-28.23851)"></circle><circle cx="2.11735" cy="0.80986" r="0.0486" transform="translate(-0.13112 1.09869) rotate(-28.25112)"></circle><circle cx="2.28187" cy="0.54553" r="0.03647" transform="translate(0.01361 1.14516) rotate(-28.25329)"></circle></g><g><circle cx="0.68038" cy="2.61707" r="0.135" transform="translate(-1.15748 0.63358) rotate(-28.24452)"></circle><circle cx="0.84493" cy="2.35272" r="0.12152" transform="translate(-1.01306 0.68027) rotate(-28.25368)"></circle><circle cx="1.00943" cy="2.08836" r="0.10938" transform="translate(-0.8678 0.72593) rotate(-28.2319)"></circle><circle cx="1.17398" cy="1.82401" r="0.09721" transform="matrix(0.88115, -0.47283, 0.47283, 0.88115, -0.72293, 0.77187)"></circle><circle cx="1.33851" cy="1.55965" r="0.08507" transform="translate(-0.57867 0.81903) rotate(-28.24146)"></circle><circle cx="1.50302" cy="1.29529" r="0.07292" transform="translate(-0.43406 0.86568) rotate(-28.24961)"></circle><circle cx="1.66757" cy="1.03098" r="0.06075" transform="translate(-0.28933 0.9117) rotate(-28.23851)"></circle><circle cx="1.8321" cy="0.76658" r="0.04862" transform="translate(-0.14458 0.95885) rotate(-28.26073)"></circle><circle cx="1.99664" cy="0.50225" r="0.03647" transform="translate(-0.00008 1.0042) rotate(-28.23073)"></circle></g><g><circle cx="0.39515" cy="2.57377" r="0.135" transform="translate(-1.1708 0.49333) rotate(-28.24052)"></circle><circle cx="0.55966" cy="2.30941" r="0.12152" transform="translate(-1.02621 0.53977) rotate(-28.24294)"></circle><circle cx="0.72421" cy="2.04505" r="0.10937" transform="translate(-0.88145 0.58609) rotate(-28.24014)"></circle><circle cx="0.88875" cy="1.78071" r="0.09721" transform="translate(-0.73687 0.6326) rotate(-28.24405)"></circle><circle cx="1.05324" cy="1.51636" r="0.08505" transform="translate(-0.59208 0.67874) rotate(-28.23652)"></circle><circle cx="1.21778" cy="1.25202" r="0.07295" transform="translate(-0.44741 0.72505) rotate(-28.23356)"></circle><circle cx="1.38232" cy="0.98766" r="0.06074" transform="translate(-0.30273 0.77114) rotate(-28.22367)"></circle><circle cx="1.54685" cy="0.7233" r="0.0486" transform="translate(-0.15812 0.81807) rotate(-28.24218)"></circle><circle cx="1.71137" cy="0.45897" r="0.03647" transform="translate(-0.01361 0.86379) rotate(-28.21992)"></circle></g></g></svg></g></svg>